<?xml version="1.0" encoding="UTF-8"?>
<svg id="Layer_2" data-name="Layer 2" xmlns="http://www.w3.org/2000/svg" viewBox="0 0 55.01 55.59">
  <defs>
    <style>
      .cls-1 {
        fill: #e8a600;
      }

      .cls-2 {
        fill: #e8b200;
      }

      .cls-3 {
        fill: #e89c9e;
      }

      .cls-4 {
        fill: #738b9f;
      }

      .cls-5 {
        fill: #b88d2f;
      }

      .cls-6 {
        fill: #b1955e;
      }

      .cls-7 {
        fill: #a55759;
      }

      .cls-8 {
        fill: #be8301;
      }

      .cls-9 {
        fill: #d29000;
      }

      .cls-10 {
        fill: #e2c17b;
      }

      .cls-11 {
        fill: #e2777a;
      }

      .cls-12 {
        fill: #161616;
      }

      .cls-13 {
        fill: #231f20;
      }

      .cls-14 {
        fill: #947f5b;
      }

      .cls-15 {
        fill: #a37917;
      }

      .cls-16 {
        fill: #484646;
      }
    </style>
  </defs>
  <g id="Layer_1-2" data-name="Layer 1">
    <g>
      <g>
        <path class="cls-12" d="M52.65,54.11c-.13-.04-.21-.06-.29-.09,.02,.05,.03,.14,.05,.14,.06,0,.12-.03,.25-.06Z"/>
        <path class="cls-8" d="M23.82,10.12c7.54,7.53,15.09,15.06,22.62,22.61,.92,.93,1.93,1.84,2.01,3.3-.79-.02-1.59-.03-2.38-.05-.94,0-1.44-.72-2.05-1.26-5.82-5.23-11.25-10.86-16.86-16.31-2.06-2-4.34-3.82-7.35-4.27,.83-1.84,2.47-2.87,4-4.01Z"/>
        <path class="cls-4" d="M23.82,10.12c-1.53,1.14-3.17,2.17-4.01,4.01,0,0-.05,.07-.05,.07-.4,.03-.83,0-1.05,.44-.67,.31-1.12,.85-1.51,1.46-.37,.16-.6,.43-.64,.85,0,0-.1,0-.1,0-.54,.26-1.08,.51-1.62,.76-2.01-1.55-3.25-3.79-5.05-5.53l.02-.97c1.27-.71,1.89-2.07,2.96-2.98,1.21-.22,1.79-1.23,2.53-2.03,.86-.5,1.73-1,2.59-1.51,.54-.31,.79-.12,1.14,.39,1.13,1.68,2.43,3.21,4.42,3.93,.64,.23,.68,.6,.36,1.12Z"/>
        <path class="cls-10" d="M51.56,48.44c-.02,.3-.04,.6-.06,.9-.5,.67-1,1.33-1.5,2-.12,.04-.24,.09-.35,.15-3.4-1.68-6.81-3.36-10.21-5.04,.02-.17,.03-.35,.05-.52,.23-1.32,.45-2.64,.68-3.96l2.95-.89c.87-.1,1.77-.11,2.48-.74,2.58,2.27,4.1,5.31,5.97,8.1Z"/>
        <path class="cls-7" d="M17.91,4.68c-.86,.5-1.73,1-2.59,1.51-.45-3.9-4.21-5.74-7.36-3.52-1.13,.8-2.18,1.78-3.09,2.83-3.21,3.73-1.98,7.09,2.94,8.17-1.19,1.35-2.22,2.87-3.82,3.81-.05-.06-.1-.13-.16-.19-5.12-5.3-5.12-7.61,.04-13.02,.62-.65,1.35-1.21,2.06-1.76C11.05-1.38,14.11-.82,17.91,4.68Z"/>
        <path class="cls-16" d="M4,17.48c1.6-.94,2.63-2.46,3.82-3.81,.13-.07,.26-.14,.39-.22,.7,.12,1.31-.12,1.84,.95,.91,1.83,2.44,3.32,4.43,4.17-.21,.36-.42,.72-.63,1.08,0,0-.04,.03-.04,.03-.14,.15-.29,.3-.43,.45,0,0-.04,.06-.04,.06-.67,.23-.91,.79-1.04,1.42-.92,.57-1.78,1.2-1.91,2.4-.58,.06-1.18,.15-1.43-.59-.72-2.14-2.15-3.6-4.28-4.34-.88-.31-.76-.93-.67-1.59Z"/>
        <path class="cls-6" d="M51.56,48.44c-1.87-2.79-3.39-5.83-5.97-8.1-.01-.14-.01-.27,0-.41,.88-1.23,.22-2.65,.49-3.96,.79,.02,1.59,.03,2.38,.05,1.74,3.35,2.51,7.06,3.81,10.57,.28,.76,.09,1.45-.71,1.85Z"/>
        <path class="cls-14" d="M39.44,46.44c3.4,1.68,6.81,3.36,10.21,5.04-.12,.28-.24,.57-.35,.85-.1,.14-.2,.28-.31,.43-4.62-1.11-9.06-2.74-13.42-4.62-.16-.41-.31-.82-.47-1.23,.35-.03,.7-.06,1.05-.08,1.12,.08,2.26,.32,3.29-.39Z"/>
        <path class="cls-15" d="M10.37,24c.13-1.2,.99-1.82,1.91-2.4,.33,.6,.79,.98,1.53,.89v.06c.17,.15,.32,.31,.48,.46h.05c-.03,.68,.29,1,.96,.98,0,0,.03,.03,.03,.03-.02,.35-.03,.69-.05,1.04-.8,.98,.32,1.96,0,2.95-.11,.1-.2,.2-.28,.32-1.55-1.44-3.09-2.88-4.64-4.32Z"/>
        <path class="cls-16" d="M50,51.34c.5-.67,1-1.33,1.5-2,.71,1.13,1.96,1.97,1.94,3.63-1.56,.17-2.1-1.6-3.44-1.63Z"/>
        <path class="cls-16" d="M48.99,52.76c.1-.14,.2-.28,.31-.43,.65,.29,1.4,.43,1.94,1.25-1.03,.27-1.7-.1-2.25-.83Z"/>
        <path class="cls-15" d="M35.1,46.91c.16,.41,.31,.82,.47,1.23-.66-.19-1.29-.42-1.69-1.03,.09-.07,.17-.15,.25-.23,.32,.01,.65,.03,.97,.04Z"/>
        <path class="cls-16" d="M52.65,54.11c-.12,.03-.19,.06-.25,.06-.02,0-.03-.09-.05-.14,.08,.02,.16,.05,.29,.09Z"/>
        <path class="cls-15" d="M16.99,30.32c-.18-.18-.36-.36-.54-.55,.12-.08,.22-.17,.32-.27,.17,.17,.33,.33,.5,.5-.1,.1-.19,.2-.27,.32Z"/>
        <path class="cls-15" d="M17.49,30.81c-.17-.17-.33-.33-.5-.5,.08-.11,.17-.22,.27-.32,.17,.17,.33,.33,.5,.5-.1,.1-.19,.2-.27,.32Z"/>
        <path class="cls-15" d="M17.99,31.31c-.17-.17-.33-.33-.5-.5,.08-.11,.17-.22,.27-.32,.17,.17,.33,.33,.5,.5-.1,.1-.19,.2-.27,.32Z"/>
        <path class="cls-15" d="M18.48,31.8c-.17-.17-.33-.33-.5-.5,.08-.11,.17-.22,.27-.31,.17,.17,.33,.33,.5,.5-.1,.1-.19,.2-.27,.32Z"/>
        <path class="cls-15" d="M18.98,32.3c-.17-.17-.33-.33-.5-.5,.08-.11,.17-.22,.27-.31,.17,.17,.33,.33,.5,.5-.1,.1-.19,.2-.27,.32Z"/>
        <path class="cls-15" d="M19.48,32.8c-.16-.17-.33-.33-.5-.5,.08-.11,.17-.22,.27-.31,.16,.17,.33,.33,.5,.5-.1,.1-.19,.2-.27,.32Z"/>
        <path class="cls-15" d="M19.97,33.3c-.16-.17-.33-.33-.5-.5,.08-.11,.17-.22,.27-.31,.16,.17,.33,.33,.49,.5-.1,.1-.19,.2-.26,.32Z"/>
        <path class="cls-15" d="M20.47,33.8c-.17-.17-.33-.34-.5-.5,.08-.11,.17-.22,.26-.31,.16,.17,.33,.33,.5,.5-.1,.1-.19,.2-.26,.32Z"/>
        <path class="cls-15" d="M20.97,34.29c-.17-.17-.33-.33-.5-.5,.08-.11,.16-.22,.26-.31,.17,.17,.33,.33,.5,.5-.1,.1-.19,.2-.26,.31Z"/>
        <path class="cls-15" d="M21.46,34.79c-.17-.17-.33-.33-.5-.5,.08-.11,.16-.22,.26-.31,.17,.17,.33,.33,.5,.5-.1,.09-.18,.2-.26,.31Z"/>
        <path class="cls-15" d="M21.96,35.28c-.17-.17-.33-.33-.5-.5,.07-.11,.16-.22,.26-.31,.17,.17,.33,.33,.5,.5-.1,.09-.18,.2-.26,.31Z"/>
        <path class="cls-15" d="M22.46,35.78c-.17-.17-.33-.33-.5-.5,.07-.11,.16-.21,.26-.31,.17,.17,.33,.33,.5,.5-.1,.09-.18,.2-.26,.31Z"/>
        <path class="cls-15" d="M22.95,36.27c-.17-.17-.33-.33-.5-.5,.07-.11,.16-.21,.26-.31,.17,.17,.33,.33,.5,.5-.1,.09-.18,.2-.26,.31Z"/>
        <path class="cls-15" d="M16.45,29.77l-.5-.5c.12-.08,.22-.17,.32-.27,.17,.17,.33,.33,.5,.5-.1,.1-.2,.19-.32,.27Z"/>
        <path class="cls-15" d="M23.45,36.77c-.17-.17-.33-.33-.5-.5,.07-.11,.16-.21,.26-.31,.17,.17,.33,.33,.5,.5-.1,.09-.18,.2-.26,.31Z"/>
        <path class="cls-15" d="M15.95,29.27c-.16-.17-.33-.33-.49-.5,.11-.08,.22-.17,.32-.27,.17,.17,.33,.33,.5,.5-.1,.1-.2,.19-.32,.27Z"/>
        <path class="cls-15" d="M23.94,37.27c-.17-.17-.33-.33-.5-.5,.07-.11,.16-.21,.26-.31,.17,.17,.33,.33,.5,.5-.1,.09-.18,.2-.26,.31Z"/>
        <path class="cls-15" d="M24.44,37.76c-.17-.17-.33-.33-.5-.5,.07-.11,.16-.21,.26-.31,.17,.17,.33,.33,.5,.5-.1,.09-.18,.2-.26,.31Z"/>
        <path class="cls-15" d="M24.94,38.26c-.17-.17-.33-.33-.5-.5,.07-.11,.16-.21,.26-.31,.17,.17,.33,.33,.5,.5-.1,.09-.18,.2-.26,.31Z"/>
        <path class="cls-15" d="M25.43,38.76c-.16-.17-.33-.33-.5-.5,.07-.11,.16-.21,.26-.31,.17,.17,.33,.33,.5,.5-.1,.09-.18,.2-.26,.31Z"/>
        <path class="cls-15" d="M25.93,39.25c-.17-.17-.33-.33-.5-.5,.07-.11,.16-.21,.26-.31,.17,.17,.33,.33,.5,.5-.1,.09-.18,.2-.26,.31Z"/>
        <path class="cls-15" d="M26.43,39.75c-.17-.17-.33-.33-.5-.5,.07-.11,.16-.21,.25-.31,.17,.17,.33,.33,.5,.5-.1,.09-.18,.2-.25,.31Z"/>
        <path class="cls-15" d="M26.92,40.25c-.17-.17-.33-.33-.5-.5,.07-.11,.16-.21,.25-.31,.17,.17,.33,.33,.5,.5-.1,.09-.18,.2-.25,.31Z"/>
        <path class="cls-15" d="M27.42,40.74c-.17-.17-.33-.33-.5-.5,.07-.11,.16-.21,.25-.31,.17,.17,.33,.33,.5,.5-.1,.09-.18,.2-.25,.31Z"/>
        <path class="cls-15" d="M27.91,41.24c-.17-.17-.33-.33-.5-.5,.07-.11,.16-.21,.25-.31,.17,.17,.33,.33,.5,.5-.1,.09-.18,.2-.25,.31Z"/>
        <path class="cls-15" d="M15.46,28.77c-.15-.15-.3-.3-.45-.45,.08-.11,.18-.22,.28-.32,.16,.17,.32,.33,.49,.5-.1,.1-.2,.19-.32,.27Z"/>
        <path class="cls-15" d="M28.41,41.73c-.17-.17-.33-.33-.5-.5,.07-.11,.16-.21,.25-.31,.17,.17,.33,.33,.5,.5-.1,.09-.18,.2-.25,.31Z"/>
        <path class="cls-15" d="M28.91,42.23c-.17-.17-.33-.33-.5-.5,.07-.11,.16-.21,.25-.31,.17,.17,.33,.33,.5,.5-.1,.09-.18,.2-.25,.31Z"/>
        <path class="cls-15" d="M29.4,42.73c-.17-.17-.33-.33-.5-.5,.07-.11,.16-.21,.25-.31,.17,.17,.33,.33,.5,.5-.1,.09-.18,.2-.25,.31Z"/>
        <path class="cls-15" d="M29.9,43.22c-.17-.17-.33-.33-.5-.5,.07-.11,.16-.21,.25-.31,.17,.17,.33,.33,.5,.5-.1,.09-.18,.2-.25,.31Z"/>
        <path class="cls-15" d="M30.4,43.72c-.17-.17-.33-.33-.5-.5,.07-.11,.16-.21,.25-.31,.17,.17,.33,.33,.5,.5-.1,.09-.18,.2-.25,.31Z"/>
        <path class="cls-15" d="M30.89,44.22c-.17-.17-.33-.33-.5-.5,.07-.11,.16-.21,.25-.31,.17,.17,.33,.33,.5,.5-.1,.09-.18,.2-.25,.31Z"/>
        <path class="cls-15" d="M31.39,44.71c-.17-.17-.33-.33-.5-.5,.07-.11,.16-.21,.25-.31,.17,.17,.33,.33,.5,.5-.1,.09-.18,.19-.25,.31Z"/>
        <path class="cls-15" d="M31.89,45.2c-.17-.17-.33-.33-.5-.5,.07-.11,.16-.21,.25-.3,.17,.17,.33,.33,.5,.5-.1,.09-.18,.19-.25,.31Z"/>
        <path class="cls-15" d="M32.39,45.7c-.17-.17-.33-.33-.5-.5,.07-.11,.15-.21,.25-.3,.17,.17,.33,.33,.5,.5-.1,.09-.18,.19-.25,.3Z"/>
        <path class="cls-15" d="M32.88,46.18c-.16-.16-.33-.32-.49-.48,.07-.11,.15-.21,.25-.3,.17,.16,.33,.33,.5,.49-.09,.09-.18,.19-.25,.29Z"/>
        <path class="cls-15" d="M33.38,46.66c-.17-.16-.34-.32-.5-.48,.07-.1,.16-.2,.25-.29,.17,.17,.33,.33,.5,.5-.09,.08-.17,.18-.24,.28Z"/>
        <path class="cls-15" d="M33.88,47.11c-.17-.15-.33-.3-.5-.45,.07-.1,.15-.19,.24-.27,.17,.16,.34,.32,.5,.49-.08,.08-.16,.16-.25,.23Z"/>
        <path class="cls-9" d="M46.08,35.97c-.27,1.31,.39,2.73-.49,3.96-.74-.48-.53-1.7-1.53-1.98-1.15-1.99-3.27-2.95-4.83-4.52-6.43-6.47-12.96-12.83-19.46-19.23,0,0,.05-.07,.05-.07,3.01,.45,5.29,2.27,7.35,4.27,5.61,5.45,11.04,11.08,16.86,16.31,.61,.55,1.11,1.25,2.05,1.26Z"/>
        <path class="cls-2" d="M19.77,14.19c6.5,6.4,13.03,12.76,19.46,19.23,1.56,1.57,3.68,2.53,4.83,4.52,.28,1.22-1.07,1.95-.95,3.13-.98,.3-1.97,.59-2.95,.89-1.5-.65-2.89-1.39-4.16-2.52-4.74-4.22-8.92-9-13.64-13.25-2.93-2.64-5.37-5.97-3.42-10.46,.18-.42,.14-.79-.23-1.1,.22-.45,.65-.41,1.05-.44Z"/>
        <path class="cls-1" d="M18.71,14.64c.37,.3,.41,.68,.23,1.1-1.96,4.49,.48,7.82,3.42,10.46,4.72,4.25,8.9,9.03,13.64,13.25,1.28,1.14,2.66,1.87,4.16,2.52-.23,1.32-.45,2.64-.68,3.96-.96-.18-1.91-.36-2.87-.54h0c-.16-.17-.33-.33-.49-.5v-.02c-.16-.16-.32-.32-.48-.48l-.02-.02c-.16-.16-.32-.32-.48-.48l-.02-.02c-.16-.16-.32-.32-.48-.48l-.02-.02c-.16-.16-.32-.32-.48-.48,0,0-.02-.02-.02-.02-.16-.16-.32-.32-.48-.48,0,0-.02-.02-.02-.02-.16-.16-.32-.32-.48-.48l-.02-.02c-.16-.16-.32-.32-.48-.48l-.02-.02c-.16-.16-.32-.32-.48-.48l-.02-.02c-.16-.16-.32-.32-.48-.48l-.02-.02c-.16-.16-.32-.32-.48-.48l-.02-.02c-.16-.16-.32-.32-.48-.48l-.02-.02c-.16-.16-.32-.32-.48-.48l-.02-.02c-.16-.16-.32-.32-.48-.48l-.02-.02c-.16-.16-.32-.32-.48-.48l-.02-.02c-.16-.16-.32-.32-.48-.48l-.02-.02c-.16-.16-.32-.32-.48-.48l-.02-.02c-.16-.16-.32-.32-.48-.48l-.02-.02c-.16-.16-.32-.32-.48-.48l-.02-.02c-.16-.16-.32-.32-.48-.48l-.02-.02c-.16-.16-.32-.32-.48-.48l-.02-.02c-.16-.16-.32-.32-.48-.48l-.02-.02c-.16-.16-.32-.32-.48-.48l-.02-.02c-.16-.16-.32-.32-.48-.48l-.02-.02c-.16-.16-.32-.32-.48-.48v-.02c-.47-1.52-1.45-2.51-2.97-2.96h-.02c-.16-.17-.32-.33-.48-.49l-.02-.02c-.16-.16-.32-.32-.48-.48l-.02-.02c-.16-.16-.32-.32-.48-.48l-.02-.02c-.16-.16-.32-.32-.48-.48l-.02-.02c-.16-.16-.32-.32-.48-.48v-.02c-.59-1.71-1.8-2.8-3.42-3.49,0,0-.03-.03-.03-.03-.06-.58-.38-.9-.96-.96,0,0-.05-.01-.05-.01-.15-.15-.31-.31-.46-.46,0,0-.01-.06-.02-.06-.16-.77-.32-1.54-.48-2.31,0,0,.04-.06,.04-.06,.14-.15,.29-.3,.43-.45,0,0,.04-.03,.04-.03,1.59-.21,2.77-.82,2.62-2.71,0,0,.1,0,.11,.01,.59,0,.63-.41,.64-.85,.39-.61,.84-1.15,1.51-1.46Z"/>
        <path class="cls-11" d="M8.21,13.45c-.13,.07-.26,.15-.39,.22-4.92-1.08-6.16-4.44-2.94-8.17,.91-1.05,1.95-2.03,3.09-2.83,3.15-2.22,6.91-.38,7.36,3.52-.75,.8-1.32,1.81-2.53,2.03-.45-2.68-1.77-4.18-3.5-3.99-1.36,.15-3.64,2.47-3.42,3.75,.37,2.13,1.73,3.26,3.96,3.22,0,.32-.01,.65-.02,.97,0,0,0-.01,0-.01-.23,.17-.47,.33-.7,.5-.49,.05-.76,.34-.9,.8Z"/>
        <path class="cls-3" d="M9.82,11.2c-2.23,.04-3.59-1.09-3.96-3.22-.22-1.27,2.06-3.6,3.42-3.75,1.74-.19,3.05,1.3,3.5,3.99-1.07,.91-1.7,2.26-2.96,2.98Z"/>
        <path class="cls-14" d="M8.21,13.45c.13-.45,.4-.75,.9-.8,.24-.17,.47-.33,.7-.5,0,0,0,.01,0,.01,1.8,1.74,3.04,3.99,5.05,5.53-.12,.29-.25,.58-.37,.87-1.99-.85-3.52-2.34-4.43-4.17-.53-1.07-1.14-.83-1.84-.95Z"/>
        <path class="cls-8" d="M14.47,18.57c.12-.29,.25-.58,.37-.87,.54-.25,1.08-.51,1.62-.76,.14,1.89-1.03,2.5-2.62,2.71,.21-.36,.42-.72,.63-1.08Z"/>
        <path class="cls-8" d="M17.21,16.1c0,.44-.05,.85-.64,.85,.03-.42,.27-.68,.64-.85Z"/>
        <path class="cls-1" d="M43.11,41.08c-.13-1.18,1.23-1.91,.95-3.13,1,.28,.79,1.5,1.53,1.98,0,.14,0,.27,0,.41-.71,.63-1.61,.64-2.48,.74Z"/>
        <path class="cls-15" d="M36.62,45.39c.96,.18,1.91,.36,2.87,.54-.02,.17-.03,.35-.05,.52-1.03,.7-2.17,.47-3.29,.39,.15-.48,.31-.96,.46-1.44Z"/>
        <path class="cls-8" d="M13.33,20.18c.16,.77,.32,1.54,.48,2.31-.74,.09-1.19-.29-1.53-.89,.13-.63,.37-1.19,1.04-1.42Z"/>
        <path class="cls-8" d="M13.8,19.67c-.14,.15-.29,.3-.43,.45,.14-.15,.29-.3,.43-.45Z"/>
        <path class="cls-5" d="M36.62,45.39c-.15,.48-.31,.96-.46,1.44-.35,.03-.7,.06-1.05,.08-.32-.01-.65-.03-.97-.04-.17-.16-.34-.32-.5-.49-.17-.17-.33-.33-.5-.5-.17-.16-.33-.33-.5-.49-.17-.17-.33-.33-.5-.5-.17-.17-.33-.33-.5-.5-.17-.17-.33-.33-.5-.5-.17-.17-.33-.33-.5-.5-.17-.17-.33-.33-.5-.5-.17-.17-.33-.33-.5-.5-.17-.17-.33-.33-.5-.5-.17-.17-.33-.33-.5-.5-.17-.17-.33-.33-.5-.5-.17-.17-.33-.33-.5-.5-.17-.17-.33-.33-.5-.5-.17-.17-.33-.33-.5-.5-.17-.17-.33-.33-.5-.5-.17-.17-.33-.33-.5-.5-.17-.17-.33-.33-.5-.5-.17-.17-.33-.33-.5-.5-.17-.17-.33-.33-.5-.5-.17-.17-.33-.33-.5-.5-.17-.17-.33-.33-.5-.5-.17-.17-.33-.33-.5-.5-.17-.17-.33-.33-.5-.5-.17-.17-.33-.33-.5-.5-.17-.17-.33-.33-.5-.5-.17-.17-.33-.33-.5-.5-.16-.17-.33-.33-.5-.5-.16-.17-.33-.33-.49-.5-.17-.17-.33-.33-.5-.5-.17-.17-.33-.33-.5-.5-.17-.17-.33-.33-.5-.5-.17-.17-.33-.33-.5-.5-.17-.17-.33-.33-.5-.5-.17-.17-.33-.33-.5-.5-.17-.17-.33-.33-.5-.5-.17-.17-.33-.33-.5-.5-.16-.17-.32-.33-.49-.5,.31-.98-.81-1.96,0-2.95,1.31,.59,1.79,2.36,3.46,2.45,0,0,.01,.02,.01,.02,.16,.16,.32,.32,.48,.48,0,0,.02,.02,.02,.02,.16,.16,.32,.32,.48,.48,0,0,.02,.02,.02,.02,.16,.16,.32,.32,.48,.48,0,0,.02,.02,.02,.02,.16,.16,.32,.32,.48,.48,0,0,.02,.02,.02,.02,.16,.16,.32,.32,.48,.48,0,0,.02,0,.02,.01,.38,1.6,1.37,2.58,2.96,2.96,0,0,0,.02,0,.02,.16,.16,.32,.32,.48,.48,0,0,.02,.02,.02,.02,.16,.16,.32,.32,.48,.48,0,0,.02,.02,.02,.02,.16,.16,.32,.32,.48,.48,0,0,.02,.02,.02,.02,.16,.16,.32,.32,.48,.48,0,0,.02,.02,.02,.02,.16,.16,.32,.32,.48,.48,0,0,.02,.02,.02,.02,.16,.16,.32,.32,.48,.48,0,0,.02,.02,.02,.02,.16,.16,.32,.32,.48,.48,0,0,.02,.02,.02,.02,.16,.16,.32,.32,.48,.48,0,0,.02,.02,.02,.02,.16,.16,.32,.32,.48,.48,0,0,.02,.02,.02,.02,.16,.16,.32,.32,.48,.48,0,0,.02,.02,.02,.02,.16,.16,.32,.32,.48,.48,0,0,.02,.02,.02,.02,.16,.16,.32,.32,.48,.48,0,0,.02,.02,.02,.02,.16,.16,.32,.32,.48,.48,0,0,.02,.02,.02,.02,.16,.16,.32,.32,.48,.48,0,0,.02,.02,.02,.02,.16,.16,.32,.32,.48,.48,0,0,.02,.02,.02,.02,.16,.16,.32,.32,.48,.48,0,0,.02,.02,.02,.02,.16,.16,.32,.32,.48,.48,0,0,.02,.02,.02,.02,.16,.16,.32,.32,.48,.48,0,0,.02,.02,.02,.02,.16,.16,.32,.32,.48,.48,0,0,.02,.02,.02,.02,.16,.16,.32,.32,.48,.48,0,0,.02,.02,.02,.02,.16,.16,.32,.32,.48,.48,0,0,.02,.02,.02,.02,.16,.16,.32,.32,.48,.48,0,0,.02,.02,.02,.02,.16,.16,.32,.32,.48,.48,0,0,.02,.02,.02,.02,.16,.16,.32,.32,.48,.48,0,0,0,.02,0,.02,.16,.17,.33,.33,.49,.5h0Z"/>
        <path class="cls-8" d="M18.75,27.51c-1.67-.09-2.15-1.86-3.46-2.45,.02-.35,.03-.69,.05-1.04,1.63,.69,2.84,1.78,3.41,3.49Z"/>
        <path class="cls-8" d="M14.34,23.03c.58,.06,.9,.38,.96,.96-.67,.03-.99-.29-.96-.96Z"/>
        <path class="cls-8" d="M13.83,22.55c.15,.15,.31,.31,.46,.46-.15-.15-.31-.31-.46-.46Z"/>
        <path class="cls-8" d="M24.21,32.96c-1.6-.38-2.59-1.37-2.96-2.96,1.52,.45,2.51,1.44,2.96,2.96Z"/>
        <path class="cls-8" d="M21.22,29.99c-.16-.16-.32-.32-.48-.48,.16,.16,.32,.32,.48,.48Z"/>
        <path class="cls-8" d="M20.23,29c-.16-.16-.32-.32-.48-.48,.16,.16,.32,.32,.48,.48Z"/>
        <path class="cls-8" d="M24.7,33.47c-.16-.16-.32-.32-.48-.48,.16,.16,.32,.32,.48,.48Z"/>
        <path class="cls-8" d="M25.2,33.96c-.16-.16-.32-.32-.48-.48,.16,.16,.32,.32,.48,.48Z"/>
        <path class="cls-8" d="M25.69,34.46c-.16-.16-.32-.32-.48-.48,.16,.16,.32,.32,.48,.48Z"/>
        <path class="cls-8" d="M26.19,34.95c-.16-.16-.32-.32-.48-.48,.16,.16,.32,.32,.48,.48Z"/>
        <path class="cls-8" d="M26.69,35.45c-.16-.16-.32-.32-.48-.48,.16,.16,.32,.32,.48,.48Z"/>
        <path class="cls-8" d="M27.68,36.44c-.16-.16-.32-.32-.48-.48,.16,.16,.32,.32,.48,.48Z"/>
        <path class="cls-8" d="M28.18,36.94c-.16-.16-.32-.32-.48-.48,.16,.16,.32,.32,.48,.48Z"/>
        <path class="cls-8" d="M28.67,37.43c-.16-.16-.32-.32-.48-.48,.16,.16,.32,.32,.48,.48Z"/>
        <path class="cls-8" d="M29.17,37.93c-.16-.16-.32-.32-.48-.48,.16,.16,.32,.32,.48,.48Z"/>
        <path class="cls-8" d="M29.66,38.43c-.16-.16-.32-.32-.48-.48,.16,.16,.32,.32,.48,.48Z"/>
        <path class="cls-8" d="M19.73,28.5c-.16-.16-.32-.32-.48-.48,.16,.16,.32,.32,.48,.48Z"/>
        <path class="cls-8" d="M30.16,38.92c-.16-.16-.32-.32-.48-.48,.16,.16,.32,.32,.48,.48Z"/>
        <path class="cls-8" d="M30.66,39.42c-.16-.16-.32-.32-.48-.48,.16,.16,.32,.32,.48,.48Z"/>
        <path class="cls-8" d="M31.15,39.91c-.16-.16-.32-.32-.48-.48,.16,.16,.32,.32,.48,.48Z"/>
        <path class="cls-8" d="M31.65,40.41c-.16-.16-.32-.32-.48-.48,.16,.16,.32,.32,.48,.48Z"/>
        <path class="cls-8" d="M32.15,40.91c-.16-.16-.32-.32-.48-.48,.16,.16,.32,.32,.48,.48Z"/>
        <path class="cls-8" d="M32.64,41.4c-.16-.16-.32-.32-.48-.48,.16,.16,.32,.32,.48,.48Z"/>
        <path class="cls-8" d="M33.14,41.9c-.16-.16-.32-.32-.48-.48,.16,.16,.32,.32,.48,.48Z"/>
        <path class="cls-8" d="M33.64,42.39c-.16-.16-.32-.32-.48-.48,.16,.16,.32,.32,.48,.48Z"/>
        <path class="cls-8" d="M34.13,42.89c-.16-.16-.32-.32-.48-.48,.16,.16,.32,.32,.48,.48Z"/>
        <path class="cls-8" d="M34.63,43.39c-.16-.16-.32-.32-.48-.48,.16,.16,.32,.32,.48,.48Z"/>
        <path class="cls-8" d="M35.12,43.88c-.16-.16-.32-.32-.48-.48,.16,.16,.32,.32,.48,.48Z"/>
        <path class="cls-8" d="M35.62,44.38c-.16-.16-.32-.32-.48-.48,.16,.16,.32,.32,.48,.48Z"/>
        <path class="cls-8" d="M36.12,44.87c-.16-.16-.32-.32-.48-.48,.16,.16,.32,.32,.48,.48Z"/>
        <path class="cls-15" d="M36.61,45.39c-.16-.17-.33-.33-.49-.5,.16,.17,.33,.33,.49,.5Z"/>
        <path class="cls-8" d="M19.24,28.01c-.16-.16-.32-.32-.48-.48,.16,.16,.32,.32,.48,.48Z"/>
        <path class="cls-8" d="M20.73,29.5c-.16-.16-.32-.32-.48-.48,.16,.16,.32,.32,.48,.48Z"/>
        <path class="cls-8" d="M27.18,35.95c-.16-.16-.32-.32-.48-.48,.16,.16,.32,.32,.48,.48Z"/>
        <path class="cls-4" d="M9.81,12.15c-.23,.17-.47,.33-.7,.5,.23-.17,.47-.33,.7-.5Z"/>
      </g>
      <polygon class="cls-13" points="55.01 55.59 52.48 47.18 46.89 52.26 55.01 55.59"/>
    </g>
  </g>
</svg>